<svg xmlns="http://www.w3.org/2000/svg" viewBox="0 0 234.584 230.079"><defs><style>.a,.h{fill:#d6e0e8}.a{opacity:.5}.b{fill:#f9f9f9}.d,.l{fill:none}.d{stroke:#46d1fc;stroke-width:2px}.k,.m{stroke:none}.m{fill:#a8b4c1}</style></defs><path class="a" d="M173.133 199.799H37.348a7.688 7.688 0 0 1 0-15.375h52.7a7.746 7.746 0 0 1-1.53-.153 7.69 7.69 0 0 0 0-15.068 7.747 7.747 0 0 1 1.538-.154h-35.06a7.69 7.69 0 0 1-.116-15.378h47.472a7.688 7.688 0 0 0 0-15.376H26.706a7.688 7.688 0 0 1 0-15.376h24.961a7.688 7.688 0 1 0 0-15.375h-7.741a7.688 7.688 0 1 1 0-15.375h17.74a7.688 7.688 0 0 0 0-15.376H28.21a7.688 7.688 0 0 1-.117-15.375h47.814a7.688 7.688 0 0 0 0-15.376h-9.841a7.688 7.688 0 1 1 0-15.371h135.3a7.688 7.688 0 1 1 0 15.376h-35.668a7.688 7.688 0 1 0 0 15.376h51.34a7.688 7.688 0 0 1-.117 15.375h-37.077a7.688 7.688 0 0 0 0 15.376h23.986a7.688 7.688 0 1 1 0 15.375h-17.221a7.748 7.748 0 0 1 1.54.154 7.689 7.689 0 0 0 0 15.068 7.748 7.748 0 0 1-1.538.154h19.68a7.688 7.688 0 1 1 0 15.376h-26.447a7.688 7.688 0 0 0 0 15.376h5.037a7.688 7.688 0 0 1-.117 15.375h-38.131a7.688 7.688 0 0 0 0 15.376h26.5a7.688 7.688 0 1 1 0 15.375z"/><rect class="b" width="27.776" height="15.375" rx="7.687" transform="translate(96.842 214.705)"/><rect class="a" width="55.553" height="15.375" rx="7.687" transform="translate(118.613)"/><circle class="b" cx="7.687" cy="7.687" r="7.687" transform="translate(219.209 122.367)"/><circle class="b" cx="7.687" cy="7.687" r="7.687" transform="translate(0 61.559)"/><path d="M201.435 88.874l-5.208 5.209m5.208 0l-5.208-5.209m18.721 68.316l-5.208 5.208m5.208 0l-5.208-5.209M88.828 28.066l-5.208 5.209m5.208 0l-5.208-5.209m-55.6 75.824l-5.208 5.208m5.208 0l-5.208-5.209m127.574 101.346l-5.208 5.209m5.208 0l-5.208-5.209" stroke-linecap="round" stroke="#46d1fc" stroke-width="2" fill="none"/><g class="d" transform="translate(150.143 14.264)"><circle class="k" cx="3.003" cy="3.003" r="3.003"/><circle class="l" cx="3.003" cy="3.003" r="2.003"/></g><g class="d" transform="translate(177.92 129.874)"><circle class="k" cx="3.003" cy="3.003" r="3.003"/><circle class="l" cx="3.003" cy="3.003" r="2.003"/></g><g class="d" transform="translate(33.031 54.052)"><circle class="k" cx="3.003" cy="3.003" r="3.003"/><circle class="l" cx="3.003" cy="3.003" r="2.003"/></g><g class="d" transform="translate(54.052 181.673)"><circle class="k" cx="3.003" cy="3.003" r="3.003"/><circle class="l" cx="3.003" cy="3.003" r="2.003"/></g><g fill="#f3f3f3"><path class="k" d="M166.659 186.678H69.066a2.757 2.757 0 0 1-2.754-2.753V47.295a2.757 2.757 0 0 1 2.754-2.754h97.593a2.757 2.757 0 0 1 2.753 2.754v136.63a2.757 2.757 0 0 1-2.753 2.753z"/><path class="m" d="M69.066 45.541c-.967 0-1.754.787-1.754 1.754v136.63c0 .967.787 1.753 1.754 1.753h97.593c.967 0 1.753-.786 1.753-1.753V47.295c0-.967-.786-1.754-1.753-1.754H69.066m0-2h97.593a3.754 3.754 0 0 1 3.753 3.754v136.63a3.754 3.754 0 0 1-3.753 3.753H69.066a3.754 3.754 0 0 1-3.754-3.753V47.295a3.754 3.754 0 0 1 3.754-3.754z"/></g><path d="M165.41 184.676H70.315a2 2 0 0 1-2-2V48.544a2 2 0 0 1 2-2h29.53v.006a6.007 6.007 0 0 0 6 6h24.785a6.007 6.007 0 0 0 6-6v-.006h28.78a2 2 0 0 1 2 2v98.285a13.153 13.153 0 0 0 0 25.951v9.9a2 2 0 0 1-2 1.996z" fill="#fff"/><g fill="#fff"><path class="k" d="M130.128 50.049h-23.782c-2.205 0-4-1.795-4-4v-2.012c0-2.206 1.795-4 4-4h7.33l.262-.6a4.001 4.001 0 0 1 3.668-2.403h1.261c1.593 0 3.033.943 3.67 2.403l.261.6h7.33c2.206 0 4 1.794 4 4v2.011c0 2.206-1.794 4-4 4z"/><path class="m" d="M130.128 49.049c1.654 0 3-1.346 3-3v-2.012c0-1.654-1.346-3-3-3h-7.985l-.523-1.2a3.002 3.002 0 0 0-2.753-1.803h-1.26a3.001 3.001 0 0 0-2.752 1.803l-.524 1.2h-7.985c-1.654 0-3 1.346-3 3v2.011c0 1.655 1.346 3 3 3h23.782m0 2h-23.782a5 5 0 0 1-5-5v-2.011a5 5 0 0 1 5-5h6.675a5 5 0 0 1 4.585-3.003h1.261a5.001 5.001 0 0 1 4.586 3.003h6.675a5 5 0 0 1 5 5v2.011a5 5 0 0 1-5 5z"/></g><path class="h" d="M88.334 77.437h9.865v9.865h-9.865zm12.948 0h46.859v3.699h-46.859zm0 4.933h38.844v3.699h-38.844zM88.334 95.934h9.865v9.865h-9.865zm12.948 0h46.859v3.699h-46.859zm0 4.933h38.844v3.699h-38.844zM88.334 114.431h9.865v9.865h-9.865zm12.948 0h46.859v3.699h-46.859zm0 4.933h38.844v3.699h-38.844zM88.334 132.928h9.865v9.865h-9.865zm12.948 0h46.859v3.699h-46.859zm0 4.933h38.844v3.699h-38.844zM88.334 151.425h9.865v9.865h-9.865zm12.948 0h46.859v3.699h-46.859zm0 4.933h38.844v3.699h-38.844z"/><g transform="translate(153.087 143.327)"><circle cx="11.651" cy="11.651" r="11.651" transform="rotate(-45 19.89 8.239)" fill="#46d1fc"/><path d="M19.07 13.862l-5.208 5.209m5.208-.001l-5.208-5.208" stroke="#fff" stroke-width="3" stroke-linecap="round" fill="none"/></g></svg>
